# xmcd CD database file
#
# Track frame offsets:
#	150
#	10062
#	39267
#	69097
#	91707
#	112257
#	127095
#	153717
#	173785
#	191037
#	201825
#
# Disc length: 2895 seconds
#
# Revision: 0
# Processed by: cddbd v1.5.2PL0 Copyright (c) Steve Scherf et al.
# Submitted via: CDex 1.51
#
DISCID=8f0b4d0b
DTITLE=Rebecka Törnqvist och Per 'Texas' Johansson - The Stockholm Kaza Session
DYEAR=1996
DGENRE=Jazz
TTITLE0=My Shining Hour
TTITLE1=Out Of This World
TTITLE2=The Peacocks
TTITLE3=After You've gone
TTITLE4=Fly Me To The Moon
TTITLE5=I've Grown Accustomed To Her Face
TTITLE6=Honey-suckle Rose
TTITLE7=Danny's Dream
TTITLE8=Fly Me To The Moon (Vocal)
TTITLE9=Atlantis
TTITLE10=Everytime We Say Goodbye
EXTD=YEAR: 1996
EXTT0=
EXTT1=
EXTT2=
EXTT3=
EXTT4=
EXTT5=
EXTT6=
EXTT7=
EXTT8=
EXTT9=
EXTT10=
PLAYORDER=
